<svg width="124" height="148" viewBox="0 0 124 148" fill="none" xmlns="http://www.w3.org/2000/svg">
<path d="M38.2333 98.6667L53.9917 79.8583L64.325 92.1917L82.6667 70.4542V80.1667H93V49.3333H67.1667V61.6667H75.3042L64.325 74.7708L53.9917 62.4375L31 90.0333L38.2333 98.6667ZM25.8333 129.5C22.9917 129.5 20.559 128.292 18.5354 125.877C16.5118 123.462 15.5 120.558 15.5 117.167V30.8333C15.5 27.4417 16.5118 24.5382 18.5354 22.1229C20.559 19.7076 22.9917 18.5 25.8333 18.5H98.1667C101.008 18.5 103.441 19.7076 105.465 22.1229C107.488 24.5382 108.5 27.4417 108.5 30.8333V117.167C108.5 120.558 107.488 123.462 105.465 125.877C103.441 128.292 101.008 129.5 98.1667 129.5H25.8333ZM25.8333 117.167H98.1667V30.8333H25.8333V117.167Z" fill="#4297FA"/>
</svg>
