<svg width="68" height="57" viewBox="0 0 68 57" fill="none" xmlns="http://www.w3.org/2000/svg">
<path d="M19.8333 40.375H25.5V28.5H19.8333V40.375ZM42.5 40.375H48.1667V16.625H42.5V40.375ZM31.1667 40.375H36.8333V33.25H31.1667V40.375ZM31.1667 28.5H36.8333V23.75H31.1667V28.5ZM14.1667 49.875C12.6083 49.875 11.2743 49.4099 10.1646 48.4797C9.05486 47.5495 8.5 46.4312 8.5 45.125V11.875C8.5 10.5687 9.05486 9.45052 10.1646 8.52031C11.2743 7.5901 12.6083 7.125 14.1667 7.125H53.8333C55.3917 7.125 56.7257 7.5901 57.8354 8.52031C58.9451 9.45052 59.5 10.5687 59.5 11.875V45.125C59.5 46.4312 58.9451 47.5495 57.8354 48.4797C56.7257 49.4099 55.3917 49.875 53.8333 49.875H14.1667ZM14.1667 45.125H53.8333V11.875H14.1667V45.125Z" fill="#4297FA"/>
</svg>
