<svg width="117" height="138" viewBox="0 0 117 138" fill="none" xmlns="http://www.w3.org/2000/svg">
<path d="M63.0094 63.5374L42.2906 39.0999L49.2375 31.0499L63.0094 47.2937L90.675 14.8062L97.5 22.8562L63.0094 63.5374ZM34.125 106.375L68.0063 117.3L97.0125 106.662C96.6063 105.8 96.0172 105.057 95.2453 104.434C94.4734 103.811 93.6 103.5 92.625 103.5H68.0063C65.8125 103.5 64.0656 103.404 62.7656 103.212C61.4656 103.021 60.125 102.637 58.7438 102.062L47.4094 97.6062L50.0906 86.3937L59.9625 90.2749C61.3438 90.7541 62.9688 91.1374 64.8375 91.4249C66.7063 91.7124 69.4688 91.9041 73.125 91.9999C73.125 90.9457 72.8609 89.9395 72.3328 88.9812C71.8047 88.0228 71.175 87.3999 70.4437 87.1124L41.925 74.7499H34.125V106.375ZM4.875 126.5V63.2499H41.925C42.4938 63.2499 43.0625 63.3218 43.6313 63.4655C44.2 63.6093 44.7281 63.777 45.2156 63.9687L73.8563 76.4749C76.5375 77.6249 78.7109 79.6374 80.3766 82.5124C82.0422 85.3874 82.875 88.5499 82.875 91.9999H92.625C96.6875 91.9999 100.141 93.5812 102.984 96.7437C105.828 99.9062 107.25 104.075 107.25 109.25V115L68.25 129.375L34.125 118.162V126.5H4.875ZM14.625 115H24.375V74.7499H14.625V115Z" fill="#4297FA"/>
</svg>
