<svg width="28" height="29" viewBox="0 0 28 29" fill="none" xmlns="http://www.w3.org/2000/svg">
<path d="M25.6666 17.475V23.85C25.6666 25.491 24.5298 26.904 22.9626 27.12C19.9481 27.5355 16.8729 27.75 13.75 27.75C10.6271 27.75 7.55193 27.5355 4.53739 27.12C2.97018 26.904 1.83341 25.491 1.83341 23.85V17.475M25.6666 17.475C26.0096 17.1655 26.284 16.7825 26.471 16.3525C26.658 15.9224 26.7532 15.4554 26.7499 14.9835V9.309C26.7499 7.6875 25.6406 6.2865 24.0965 6.0465C22.4604 5.79213 20.816 5.59851 19.1666 5.466M25.6666 17.475C25.3864 17.7225 25.0599 17.9175 24.6945 18.045C21.1646 19.2613 17.4691 19.8792 13.75 19.875C9.92513 19.875 6.24616 19.2315 2.80551 18.045C2.44911 17.9219 2.11901 17.7283 1.83341 17.475M1.83341 17.475C1.49042 17.1655 1.216 16.7825 1.029 16.3525C0.841999 15.9224 0.746848 15.4554 0.75008 14.9835V9.309C0.75008 7.6875 1.85941 6.2865 3.40351 6.0465C5.03962 5.79212 6.68395 5.5985 8.33337 5.466M19.1666 5.466V4.125C19.1666 3.22989 18.8242 2.37145 18.2147 1.73851C17.6052 1.10558 16.7786 0.75 15.9167 0.75H11.5833C10.7214 0.75 9.89475 1.10558 9.28526 1.73851C8.67577 2.37145 8.33337 3.22989 8.33337 4.125V5.466M19.1666 5.466C15.5609 5.17662 11.9391 5.17662 8.33337 5.466M13.75 15.375H13.7616V15.387H13.75V15.375Z" stroke="#0F9D8A" stroke-width="1.5" stroke-linecap="round" stroke-linejoin="round"/>
</svg>
