<svg width="63" height="61" viewBox="0 0 63 61" fill="none" xmlns="http://www.w3.org/2000/svg">
<path d="M5.25 50.8333C3.80625 50.8333 2.57031 50.3356 1.54219 49.3401C0.514062 48.3446 0 47.1479 0 45.75H10.5C9.05625 45.75 7.82031 45.2523 6.79219 44.2568C5.76406 43.2613 5.25 42.0646 5.25 40.6667V12.7083C5.25 11.3104 5.76406 10.1137 6.79219 9.11823C7.82031 8.12274 9.05625 7.625 10.5 7.625H52.5C53.9437 7.625 55.1797 8.12274 56.2078 9.11823C57.2359 10.1137 57.75 11.3104 57.75 12.7083V40.6667C57.75 42.0646 57.2359 43.2613 56.2078 44.2568C55.1797 45.2523 53.9437 45.75 52.5 45.75H63C63 47.1479 62.4859 48.3446 61.4578 49.3401C60.4297 50.3356 59.1937 50.8333 57.75 50.8333H5.25ZM31.5 48.2917C32.2437 48.2917 32.8672 48.0481 33.3703 47.5609C33.8734 47.0738 34.125 46.4701 34.125 45.75C34.125 45.0299 33.8734 44.4262 33.3703 43.9391C32.8672 43.4519 32.2437 43.2083 31.5 43.2083C30.7562 43.2083 30.1328 43.4519 29.6297 43.9391C29.1266 44.4262 28.875 45.0299 28.875 45.75C28.875 46.4701 29.1266 47.0738 29.6297 47.5609C30.1328 48.0481 30.7562 48.2917 31.5 48.2917ZM10.5 40.6667H52.5V12.7083H10.5V40.6667Z" fill="#4297FA"/>
</svg>
