<svg width="46" height="54" viewBox="0 0 46 54" fill="none" xmlns="http://www.w3.org/2000/svg">
<path d="M4.6 54C3.335 54 2.25208 53.4434 1.35125 52.3303C0.450417 51.2171 0 49.8789 0 48.3158V17.0526C0 15.4895 0.450417 14.1513 1.35125 13.0382C2.25208 11.925 3.335 11.3684 4.6 11.3684H13.8V5.68421C13.8 4.12105 14.2504 2.78289 15.1512 1.66974C16.0521 0.556579 17.135 0 18.4 0H27.6C28.865 0 29.9479 0.556579 30.8488 1.66974C31.7496 2.78289 32.2 4.12105 32.2 5.68421V11.3684H41.4C42.665 11.3684 43.7479 11.925 44.6488 13.0382C45.5496 14.1513 46 15.4895 46 17.0526V48.3158C46 49.8789 45.5496 51.2171 44.6488 52.3303C43.7479 53.4434 42.665 54 41.4 54H4.6ZM18.4 11.3684H27.6V5.68421H18.4V11.3684ZM41.4 36.9474H29.9V42.6316H16.1V36.9474H4.6V48.3158H41.4V36.9474ZM20.7 36.9474H25.3V31.2632H20.7V36.9474ZM4.6 31.2632H16.1V25.5789H29.9V31.2632H41.4V17.0526H4.6V31.2632Z" fill="#0F9D8A"/>
</svg>
