<svg width="24" height="28" viewBox="0 0 24 28" fill="none" xmlns="http://www.w3.org/2000/svg">
<path d="M12 13.9999C12.55 13.9999 13.0208 13.7714 13.4125 13.3145C13.8042 12.8576 14 12.3083 14 11.6666C14 11.0249 13.8042 10.4756 13.4125 10.0187C13.0208 9.56172 12.55 9.33325 12 9.33325C11.45 9.33325 10.9792 9.56172 10.5875 10.0187C10.1958 10.4756 10 11.0249 10 11.6666C10 12.3083 10.1958 12.8576 10.5875 13.3145C10.9792 13.7714 11.45 13.9999 12 13.9999ZM12 22.5749C14.0333 20.3971 15.5417 18.4187 16.525 16.6395C17.5083 14.8603 18 13.2805 18 11.8999C18 9.78047 17.4208 8.04506 16.2625 6.69367C15.1042 5.34228 13.6833 4.66659 12 4.66659C10.3167 4.66659 8.89583 5.34228 7.7375 6.69367C6.57917 8.04506 6 9.78047 6 11.8999C6 13.2805 6.49167 14.8603 7.475 16.6395C8.45833 18.4187 9.96667 20.3971 12 22.5749ZM12 25.6666C9.31667 23.0027 7.3125 20.5284 5.9875 18.2437C4.6625 15.9589 4 13.8444 4 11.8999C4 8.98325 4.80417 6.65964 6.4125 4.92909C8.02083 3.19853 9.88333 2.33325 12 2.33325C14.1167 2.33325 15.9792 3.19853 17.5875 4.92909C19.1958 6.65964 20 8.98325 20 11.8999C20 13.8444 19.3375 15.9589 18.0125 18.2437C16.6875 20.5284 14.6833 23.0027 12 25.6666Z" fill="#0F9D8A"/>
</svg>
