<svg width="58" height="50" viewBox="0 0 58 50" fill="none" xmlns="http://www.w3.org/2000/svg">
<path d="M29 45.8334C25.6972 45.8334 22.5757 45.2865 19.6354 44.1928C16.6951 43.099 14.1274 41.606 11.9323 39.7136C9.73715 37.8213 8.0052 35.6077 6.73645 33.073C5.4677 30.5383 4.83333 27.8473 4.83333 25.0001C4.83333 22.1181 5.48784 19.4098 6.79687 16.8751C8.1059 14.3404 9.87812 12.1355 12.1135 10.2605C14.349 8.3855 16.9569 6.90112 19.9375 5.80737C22.9181 4.71362 26.1 4.16675 29.4833 4.16675C32.7055 4.16675 35.7465 4.64418 38.6062 5.59904C41.466 6.5539 43.9733 7.87335 46.1281 9.55737C48.283 11.2414 49.9948 13.2379 51.2635 15.547C52.5323 17.856 53.1667 20.3473 53.1667 23.0209C53.1667 27.014 51.7569 30.0782 48.9375 32.2136C46.118 34.349 42.6944 35.4167 38.6667 35.4167H34.1958C33.8333 35.4167 33.5816 35.5036 33.4406 35.6772C33.2996 35.8508 33.2292 36.0417 33.2292 36.2501C33.2292 36.6667 33.5312 37.2657 34.1354 38.047C34.7396 38.8282 35.0417 39.7223 35.0417 40.7292C35.0417 42.4654 34.4878 43.7501 33.3802 44.5834C32.2726 45.4168 30.8125 45.8334 29 45.8334ZM15.7083 27.0834C16.7556 27.0834 17.6215 26.7883 18.3062 26.198C18.991 25.6077 19.3333 24.8612 19.3333 23.9584C19.3333 23.0556 18.991 22.3091 18.3062 21.7188C17.6215 21.1286 16.7556 20.8334 15.7083 20.8334C14.6611 20.8334 13.7951 21.1286 13.1104 21.7188C12.4257 22.3091 12.0833 23.0556 12.0833 23.9584C12.0833 24.8612 12.4257 25.6077 13.1104 26.198C13.7951 26.7883 14.6611 27.0834 15.7083 27.0834ZM22.9583 18.7501C24.0056 18.7501 24.8715 18.4549 25.5562 17.8647C26.241 17.2744 26.5833 16.5279 26.5833 15.6251C26.5833 14.7223 26.241 13.9758 25.5562 13.3855C24.8715 12.7952 24.0056 12.5001 22.9583 12.5001C21.9111 12.5001 21.0451 12.7952 20.3604 13.3855C19.6757 13.9758 19.3333 14.7223 19.3333 15.6251C19.3333 16.5279 19.6757 17.2744 20.3604 17.8647C21.0451 18.4549 21.9111 18.7501 22.9583 18.7501ZM35.0417 18.7501C36.0889 18.7501 36.9549 18.4549 37.6396 17.8647C38.3243 17.2744 38.6667 16.5279 38.6667 15.6251C38.6667 14.7223 38.3243 13.9758 37.6396 13.3855C36.9549 12.7952 36.0889 12.5001 35.0417 12.5001C33.9944 12.5001 33.1285 12.7952 32.4437 13.3855C31.759 13.9758 31.4167 14.7223 31.4167 15.6251C31.4167 16.5279 31.759 17.2744 32.4437 17.8647C33.1285 18.4549 33.9944 18.7501 35.0417 18.7501ZM42.2917 27.0834C43.3389 27.0834 44.2049 26.7883 44.8896 26.198C45.5743 25.6077 45.9167 24.8612 45.9167 23.9584C45.9167 23.0556 45.5743 22.3091 44.8896 21.7188C44.2049 21.1286 43.3389 20.8334 42.2917 20.8334C41.2444 20.8334 40.3785 21.1286 39.6937 21.7188C39.009 22.3091 38.6667 23.0556 38.6667 23.9584C38.6667 24.8612 39.009 25.6077 39.6937 26.198C40.3785 26.7883 41.2444 27.0834 42.2917 27.0834ZM29 41.6667C29.3625 41.6667 29.6545 41.5799 29.876 41.4063C30.0976 41.2327 30.2083 41.007 30.2083 40.7292C30.2083 40.2431 29.9062 39.6702 29.3021 39.0105C28.6979 38.3508 28.3958 37.3612 28.3958 36.0417C28.3958 34.5834 28.9799 33.4202 30.1479 32.5522C31.316 31.6841 32.7458 31.2501 34.4375 31.2501H38.6667C41.325 31.2501 43.6007 30.5817 45.4937 29.2449C47.3868 27.9081 48.3333 25.8334 48.3333 23.0209C48.3333 18.8195 46.4705 15.3213 42.7448 12.5261C39.0191 9.73098 34.5986 8.33342 29.4833 8.33342C24.0056 8.33342 19.3333 9.948 15.4667 13.1772C11.6 16.4063 9.66666 20.3473 9.66666 25.0001C9.66666 29.6181 11.5496 33.5504 15.3156 36.797C19.0816 40.0435 23.643 41.6667 29 41.6667Z" fill="#4297FA"/>
</svg>
