<svg width="32" height="32" viewBox="0 0 32 32" fill="none" xmlns="http://www.w3.org/2000/svg">
<path d="M22.7453 20.6947C23.3691 20.2687 24.1006 20.0281 24.8554 20.0006C25.6102 19.9731 26.3573 20.1598 27.0104 20.5392C27.6635 20.9186 28.1958 21.4752 28.5458 22.1445C28.8957 22.8138 29.0491 23.5685 28.988 24.3213C27.3882 24.8804 25.689 25.098 24 24.96C23.9948 23.4488 23.5596 21.969 22.7453 20.696C22.0225 19.5624 21.0255 18.6294 19.8464 17.9833C18.6674 17.3373 17.3444 16.9991 16 17C14.6558 16.9993 13.3331 17.3376 12.1543 17.9837C10.9755 18.6297 9.97867 19.5626 9.256 20.696M23.9987 24.9587L24 25C24 25.3 23.984 25.596 23.9507 25.888C21.5311 27.2762 18.7895 28.0045 16 28C13.1067 28 10.3907 27.232 8.04933 25.888C8.01505 25.5794 7.99858 25.2691 8 24.9587M8 24.9587C6.31151 25.1017 4.61321 24.8849 3.01467 24.3227C2.9538 23.5701 3.10719 22.8156 3.45711 22.1465C3.80702 21.4774 4.33916 20.9211 4.992 20.5417C5.64485 20.1624 6.39173 19.9755 7.14629 20.0028C7.90086 20.0301 8.63228 20.2705 9.256 20.696M8 24.9587C8.00479 23.4476 8.44217 21.9692 9.256 20.696M20 9C20 10.0609 19.5786 11.0783 18.8284 11.8284C18.0783 12.5786 17.0609 13 16 13C14.9391 13 13.9217 12.5786 13.1716 11.8284C12.4214 11.0783 12 10.0609 12 9C12 7.93913 12.4214 6.92172 13.1716 6.17157C13.9217 5.42143 14.9391 5 16 5C17.0609 5 18.0783 5.42143 18.8284 6.17157C19.5786 6.92172 20 7.93913 20 9ZM28 13C28 13.394 27.9224 13.7841 27.7716 14.1481C27.6209 14.512 27.3999 14.8427 27.1213 15.1213C26.8427 15.3999 26.512 15.6209 26.1481 15.7716C25.7841 15.9224 25.394 16 25 16C24.606 16 24.2159 15.9224 23.8519 15.7716C23.488 15.6209 23.1573 15.3999 22.8787 15.1213C22.6001 14.8427 22.3791 14.512 22.2284 14.1481C22.0776 13.7841 22 13.394 22 13C22 12.2044 22.3161 11.4413 22.8787 10.8787C23.4413 10.3161 24.2044 10 25 10C25.7957 10 26.5587 10.3161 27.1213 10.8787C27.6839 11.4413 28 12.2044 28 13ZM10 13C10 13.394 9.9224 13.7841 9.77164 14.1481C9.62088 14.512 9.3999 14.8427 9.12132 15.1213C8.84275 15.3999 8.51203 15.6209 8.14805 15.7716C7.78407 15.9224 7.39397 16 7 16C6.60604 16 6.21593 15.9224 5.85195 15.7716C5.48797 15.6209 5.15726 15.3999 4.87868 15.1213C4.6001 14.8427 4.37913 14.512 4.22836 14.1481C4.0776 13.7841 4 13.394 4 13C4 12.2044 4.31607 11.4413 4.87868 10.8787C5.44129 10.3161 6.20435 10 7 10C7.79565 10 8.55871 10.3161 9.12132 10.8787C9.68393 11.4413 10 12.2044 10 13Z" stroke="black" stroke-opacity="0.47" stroke-width="1.5" stroke-linecap="round" stroke-linejoin="round"/>
</svg>
