<svg width="18" height="18" viewBox="0 0 18 18" fill="none" xmlns="http://www.w3.org/2000/svg">
<g clip-path="url(#clip0_56_5264)">
<path d="M17.7346 8.97496C17.7346 13.815 13.8096 17.74 8.96959 17.74C4.12959 17.74 0.20459 13.815 0.20459 8.97496C0.20459 4.13496 4.12959 0.209961 8.96959 0.209961C13.8096 0.209961 17.7346 4.13496 17.7346 8.97496Z" fill="#CA2127"/>
<path d="M8.2348 3.14484C5.76482 3.40984 3.30484 5.30984 3.20484 8.02984C3.13984 9.68984 3.83483 10.9348 5.49482 11.2848C5.68482 10.4998 5.71982 10.0748 5.71982 10.0748C5.71982 10.0748 4.98982 9.37484 4.91482 8.92984C4.30483 5.34984 9.24979 2.90484 11.8448 5.40484C13.6348 7.13984 12.4548 12.4748 9.56479 11.9198C6.79481 11.3898 10.9198 7.14484 8.70979 6.30984C6.91481 5.62984 5.95982 8.38484 6.80981 9.74984C6.30981 12.0998 5.23482 14.3148 5.66982 17.2598C7.08481 16.2848 7.5598 14.4148 7.9498 12.4648C8.65979 12.8748 9.03979 13.3048 9.94478 13.3698C13.2848 13.6148 15.1497 10.1948 14.6947 7.03484C14.2847 4.23484 11.3548 2.80984 8.2348 3.14484Z" fill="white"/>
</g>
<defs>
<clipPath id="clip0_56_5264">
<rect width="18" height="18" fill="white"/>
</clipPath>
</defs>
</svg>
