<svg width="33" height="41" viewBox="0 0 33 41" fill="none" xmlns="http://www.w3.org/2000/svg">
<path d="M26 4V12" stroke="#0A65CC" stroke-width="2" stroke-linecap="round" stroke-linejoin="round"/>
<path opacity="0.2" d="M16.5 25C21.1944 25 25 20.299 25 14.5C25 8.70101 21.1944 4 16.5 4C11.8056 4 8 8.70101 8 14.5C8 20.299 11.8056 25 16.5 25Z" fill="#0A65CC"/>
<path d="M23 9H29" stroke="#0A65CC" stroke-width="2" stroke-linecap="round" stroke-linejoin="round"/>
<path d="M25 18.1468C24.4133 20.0428 23.3816 21.6958 22.029 22.9071C20.6764 24.1184 19.0603 24.8366 17.3749 24.9753C15.6895 25.114 14.0065 24.6673 12.5281 23.689C11.0497 22.7107 9.83867 21.2423 9.04062 19.4602C8.24257 17.6781 7.89139 15.6582 8.02928 13.643C8.16716 11.6278 8.78824 9.70318 9.81791 8.10025C10.8476 6.49731 12.242 5.28427 13.8338 4.60686C15.4255 3.92944 17.1468 3.81646 18.7908 4.28149" stroke="#0A65CC" stroke-width="2" stroke-linecap="round" stroke-linejoin="round"/>
<path d="M4 33.9997C5.26732 31.2633 7.0896 28.991 9.28376 27.4113C11.4779 25.8316 13.9667 25 16.5001 25C19.0335 25 21.5222 25.8317 23.7164 27.4115C25.9105 28.9913 27.7327 31.2635 29 34" stroke="#0A65CC" stroke-width="2" stroke-linecap="round" stroke-linejoin="round"/>
</svg>
