<svg width="30" height="25" viewBox="0 0 30 25" fill="none" xmlns="http://www.w3.org/2000/svg">
<path d="M11.3333 10C9.775 10 8.44097 9.51042 7.33125 8.53125C6.22153 7.55208 5.66667 6.375 5.66667 5C5.66667 3.625 6.22153 2.44792 7.33125 1.46875C8.44097 0.489583 9.775 0 11.3333 0C12.8917 0 14.2257 0.489583 15.3354 1.46875C16.4451 2.44792 17 3.625 17 5C17 6.375 16.4451 7.55208 15.3354 8.53125C14.2257 9.51042 12.8917 10 11.3333 10ZM11.3333 7.5C12.1125 7.5 12.7795 7.25521 13.3344 6.76562C13.8892 6.27604 14.1667 5.6875 14.1667 5C14.1667 4.3125 13.8892 3.72396 13.3344 3.23438C12.7795 2.74479 12.1125 2.5 11.3333 2.5C10.5542 2.5 9.88715 2.74479 9.33229 3.23438C8.77743 3.72396 8.5 4.3125 8.5 5C8.5 5.6875 8.77743 6.27604 9.33229 6.76562C9.88715 7.25521 10.5542 7.5 11.3333 7.5ZM27.0583 24.375L22.525 20.375C22.0292 20.625 21.4979 20.8333 20.9312 21C20.3646 21.1667 19.7625 21.25 19.125 21.25C17.3542 21.25 15.849 20.7031 14.6094 19.6094C13.3698 18.5156 12.75 17.1875 12.75 15.625C12.75 14.0625 13.3698 12.7344 14.6094 11.6406C15.849 10.5469 17.3542 10 19.125 10C20.8958 10 22.401 10.5469 23.6406 11.6406C24.8802 12.7344 25.5 14.0625 25.5 15.625C25.5 16.1875 25.4056 16.7188 25.2167 17.2188C25.0278 17.7188 24.7917 18.1875 24.5083 18.625L29.0417 22.625L27.0583 24.375ZM19.125 18.75C20.1167 18.75 20.9549 18.4479 21.6396 17.8438C22.3243 17.2396 22.6667 16.5 22.6667 15.625C22.6667 14.75 22.3243 14.0104 21.6396 13.4062C20.9549 12.8021 20.1167 12.5 19.125 12.5C18.1333 12.5 17.2951 12.8021 16.6104 13.4062C15.9257 14.0104 15.5833 14.75 15.5833 15.625C15.5833 16.5 15.9257 17.2396 16.6104 17.8438C17.2951 18.4479 18.1333 18.75 19.125 18.75ZM0 20V16.5312C0 15.8229 0.200694 15.1667 0.602083 14.5625C1.00347 13.9583 1.55833 13.5 2.26667 13.1875C3.47083 12.6458 4.82847 12.1875 6.33958 11.8125C7.85069 11.4375 9.52708 11.25 11.3687 11.25C11.0854 11.625 10.8434 12.026 10.6427 12.4531C10.442 12.8802 10.2826 13.3229 10.1646 13.7812C8.74792 13.8854 7.48472 14.099 6.375 14.4219C5.26528 14.7448 4.33264 15.0833 3.57708 15.4375C3.34097 15.5417 3.15799 15.6927 3.02812 15.8906C2.89826 16.0885 2.83333 16.3021 2.83333 16.5312V17.5H10.1646C10.2826 17.9583 10.442 18.3958 10.6427 18.8125C10.8434 19.2292 11.0854 19.625 11.3687 20H0Z" fill="#0F9D8A"/>
</svg>
