<svg width="118" height="138" viewBox="0 0 118 138" fill="none" xmlns="http://www.w3.org/2000/svg">
<path d="M61.4583 68.7125C63.8347 65.6458 65.658 62.1479 66.9281 58.2188C68.1983 54.2896 68.8333 50.2167 68.8333 46C68.8333 41.7833 68.1983 37.7104 66.9281 33.7813C65.658 29.8521 63.8347 26.3542 61.4583 23.2875C66.375 24.0542 70.4722 26.5938 73.75 30.9063C77.0278 35.2188 78.6667 40.25 78.6667 46C78.6667 51.75 77.0278 56.7813 73.75 61.0938C70.4722 65.4063 66.375 67.9458 61.4583 68.7125ZM88.5 115V97.75C88.5 94.3 87.8444 91.0177 86.5333 87.9031C85.2222 84.7885 83.5014 82.0333 81.3708 79.6375C85.55 81.3625 89.4219 83.5906 92.9865 86.3219C96.551 89.0531 98.3333 92.8625 98.3333 97.75V115H88.5ZM98.3333 74.75V63.25H88.5V51.75H98.3333V40.25H108.167V51.75H118V63.25H108.167V74.75H98.3333ZM39.3333 69C33.925 69 29.2951 66.7479 25.4438 62.2438C21.5924 57.7396 19.6667 52.325 19.6667 46C19.6667 39.675 21.5924 34.2604 25.4438 29.7563C29.2951 25.2521 33.925 23 39.3333 23C44.7417 23 49.3715 25.2521 53.2229 29.7563C57.0743 34.2604 59 39.675 59 46C59 52.325 57.0743 57.7396 53.2229 62.2438C49.3715 66.7479 44.7417 69 39.3333 69ZM0 115V98.9C0 95.6417 0.717014 92.6469 2.15104 89.9156C3.58507 87.1844 5.49028 85.1 7.86667 83.6625C12.9472 80.6917 18.1097 78.4635 23.3542 76.9781C28.5986 75.4927 33.925 74.75 39.3333 74.75C44.7417 74.75 50.0681 75.4927 55.3125 76.9781C60.5569 78.4635 65.7194 80.6917 70.8 83.6625C73.1764 85.1 75.0816 87.1844 76.5156 89.9156C77.9497 92.6469 78.6667 95.6417 78.6667 98.9V115H0ZM39.3333 57.5C42.0375 57.5 44.3524 56.374 46.2781 54.1219C48.2038 51.8698 49.1667 49.1625 49.1667 46C49.1667 42.8375 48.2038 40.1302 46.2781 37.8781C44.3524 35.626 42.0375 34.5 39.3333 34.5C36.6292 34.5 34.3142 35.626 32.3885 37.8781C30.4628 40.1302 29.5 42.8375 29.5 46C29.5 49.1625 30.4628 51.8698 32.3885 54.1219C34.3142 56.374 36.6292 57.5 39.3333 57.5ZM9.83333 103.5H68.8333V98.9C68.8333 97.8458 68.608 96.8875 68.1573 96.025C67.7066 95.1625 67.1125 94.4917 66.375 94.0125C61.95 91.425 57.484 89.4844 52.9771 88.1906C48.4701 86.8969 43.9222 86.25 39.3333 86.25C34.7444 86.25 30.1965 86.8969 25.6896 88.1906C21.1826 89.4844 16.7167 91.425 12.2917 94.0125C11.5542 94.4917 10.9601 95.1625 10.5094 96.025C10.0587 96.8875 9.83333 97.8458 9.83333 98.9V103.5Z" fill="#4297FA"/>
</svg>
