<svg width="18" height="18" viewBox="0 0 18 18" fill="none" xmlns="http://www.w3.org/2000/svg">
<mask id="path-1-inside-1_56_5261" fill="white">
<path d="M5.62925 16.2021C12.3841 16.2021 16.0782 10.638 16.0782 5.81302C16.0782 5.655 16.0749 5.49771 16.0678 5.34107C16.7865 4.82396 17.4068 4.18369 17.8996 3.45029C17.2416 3.74115 16.5335 3.93692 15.7907 4.02519C16.5489 3.57316 17.131 2.85803 17.4056 2.00561C16.6847 2.43081 15.896 2.73055 15.0736 2.89191C14.4035 2.18217 13.4494 1.73828 12.393 1.73828C10.3649 1.73828 8.72036 3.37348 8.72036 5.38912C8.72036 5.67569 8.75263 5.95433 8.81564 6.22169C5.76343 6.06899 3.05694 4.61603 1.24562 2.40673C0.919389 2.96396 0.747795 3.59726 0.748365 4.24196C0.748365 5.50877 1.39668 6.62708 2.38261 7.28135C1.79942 7.26364 1.22903 7.10702 0.719405 6.82465C0.718859 6.83998 0.718859 6.85492 0.718859 6.8713C0.718859 8.6396 1.98471 10.116 3.66509 10.4506C3.3495 10.536 3.02383 10.5792 2.69673 10.5791C2.46051 10.5791 2.23029 10.5559 2.00654 10.5132C2.47408 11.964 3.82979 13.0198 5.43716 13.0493C4.18022 14.0288 2.59686 14.6122 0.87599 14.6122C0.583247 14.6125 0.290744 14.5956 0 14.5617C1.6253 15.5974 3.55519 16.2018 5.62943 16.2018"/>
</mask>
<path d="M5.62925 16.2021C12.3841 16.2021 16.0782 10.638 16.0782 5.81302C16.0782 5.655 16.0749 5.49771 16.0678 5.34107C16.7865 4.82396 17.4068 4.18369 17.8996 3.45029C17.2416 3.74115 16.5335 3.93692 15.7907 4.02519C16.5489 3.57316 17.131 2.85803 17.4056 2.00561C16.6847 2.43081 15.896 2.73055 15.0736 2.89191C14.4035 2.18217 13.4494 1.73828 12.393 1.73828C10.3649 1.73828 8.72036 3.37348 8.72036 5.38912C8.72036 5.67569 8.75263 5.95433 8.81564 6.22169C5.76343 6.06899 3.05694 4.61603 1.24562 2.40673C0.919389 2.96396 0.747795 3.59726 0.748365 4.24196C0.748365 5.50877 1.39668 6.62708 2.38261 7.28135C1.79942 7.26364 1.22903 7.10702 0.719405 6.82465C0.718859 6.83998 0.718859 6.85492 0.718859 6.8713C0.718859 8.6396 1.98471 10.116 3.66509 10.4506C3.3495 10.536 3.02383 10.5792 2.69673 10.5791C2.46051 10.5791 2.23029 10.5559 2.00654 10.5132C2.47408 11.964 3.82979 13.0198 5.43716 13.0493C4.18022 14.0288 2.59686 14.6122 0.87599 14.6122C0.583247 14.6125 0.290744 14.5956 0 14.5617C1.6253 15.5974 3.55519 16.2018 5.62943 16.2018" fill="#1DA1F2"/>
<path d="M16.0678 5.34107L13.8671 2.28213L12.2101 3.47421L12.3034 5.5133L16.0678 5.34107ZM17.8996 3.45029L21.0275 5.55191L28.2954 -5.26497L16.3761 0.00367224L17.8996 3.45029ZM15.7907 4.02519L13.861 0.788425L16.2353 7.76718L15.7907 4.02519ZM17.4056 2.00561L20.9923 3.16122L24.0338 -6.27872L15.4912 -1.24019L17.4056 2.00561ZM15.0736 2.89191L12.3337 5.47899L13.7602 6.98979L15.7992 6.58972L15.0736 2.89191ZM8.81564 6.22169L8.62735 9.9853L13.6332 10.2357L12.4835 5.35725L8.81564 6.22169ZM1.24562 2.40673L4.15974 0.0175607L0.728203 -4.16797L-2.00635 0.502827L1.24562 2.40673ZM0.748365 4.24196H4.51668L4.51668 4.23863L0.748365 4.24196ZM2.38261 7.28135L2.26824 11.0479L15.4782 11.4491L4.46624 4.14149L2.38261 7.28135ZM0.719405 6.82465L2.54569 3.52846L-2.82799 0.551122L-3.04652 6.69061L0.719405 6.82465ZM3.66509 10.4506L4.65 14.0879L4.40089 6.7548L3.66509 10.4506ZM2.69673 10.5791L2.69891 6.81074H2.69673V10.5791ZM2.00654 10.5132L2.71301 6.81174L-3.52943 5.6203L-1.58013 11.6691L2.00654 10.5132ZM5.43716 13.0493L7.75348 16.0216L16.1516 9.47702L5.50632 9.28161L5.43716 13.0493ZM0.87599 14.6122V10.8439L0.872803 10.8439L0.87599 14.6122ZM0 14.5617L0.436966 10.8188L-2.02521 17.7395L0 14.5617ZM5.62925 19.9704C14.8791 19.9704 19.8465 12.2797 19.8465 5.81302H12.3098C12.3098 8.99624 9.88916 12.4338 5.62925 12.4338V19.9704ZM19.8465 5.81302C19.8465 5.60368 19.8422 5.38864 19.8321 5.16883L12.3034 5.5133C12.3077 5.60677 12.3098 5.70632 12.3098 5.81302H19.8465ZM18.2685 8.40001C19.3499 7.62198 20.2844 6.65777 21.0275 5.55191L14.7718 1.34866C14.5293 1.7096 14.2232 2.02594 13.8671 2.28213L18.2685 8.40001ZM16.3761 0.00367224C16.0619 0.142553 15.7176 0.239051 15.346 0.283195L16.2353 7.76718C17.3495 7.63479 18.4213 7.33975 19.4231 6.8969L16.3761 0.00367224ZM17.7203 7.26195C19.2454 6.35277 20.4296 4.90787 20.9923 3.16122L13.8189 0.849992C13.8258 0.828582 13.8349 0.81395 13.8418 0.805455C13.8481 0.797536 13.8544 0.792378 13.861 0.788425L17.7203 7.26195ZM15.4912 -1.24019C15.1386 -1.03224 14.752 -0.885155 14.3481 -0.805894L15.7992 6.58972C17.04 6.34625 18.2308 5.89385 19.32 5.25141L15.4912 -1.24019ZM17.8136 0.304833C16.4583 -1.13053 14.5247 -2.03003 12.393 -2.03003V5.5066C12.393 5.5066 12.3918 5.50659 12.3896 5.50636C12.3874 5.50613 12.3846 5.50571 12.3814 5.50503C12.3748 5.50363 12.3681 5.50148 12.3619 5.49875C12.3504 5.49367 12.3414 5.48713 12.3337 5.47899L17.8136 0.304833ZM12.393 -2.03003C8.30467 -2.03003 4.95204 1.27145 4.95204 5.38912H12.4887C12.4887 5.40205 12.4853 5.42312 12.4764 5.44395C12.4686 5.4622 12.4597 5.47354 12.4529 5.48026C12.4462 5.48697 12.4371 5.49356 12.4245 5.49887C12.4179 5.50163 12.411 5.50375 12.4044 5.50511C12.4011 5.50577 12.3984 5.50616 12.3962 5.50638C12.394 5.5066 12.3929 5.5066 12.393 5.5066V-2.03003ZM4.95204 5.38912C4.95204 5.95941 5.01637 6.52841 5.14781 7.08613L12.4835 5.35725C12.4889 5.38025 12.4887 5.39196 12.4887 5.38912H4.95204ZM9.00393 2.45809C7.04984 2.36032 5.32042 1.43326 4.15974 0.0175607L-1.66849 4.79589C0.79347 7.7988 4.47701 9.77766 8.62735 9.9853L9.00393 2.45809ZM-2.00635 0.502827C-2.67072 1.63761 -3.02111 2.92914 -3.01995 4.24529L4.51668 4.23863C4.5167 4.26538 4.5095 4.2903 4.4976 4.31062L-2.00635 0.502827ZM-3.01995 4.24196C-3.01995 6.82589 -1.69303 9.09929 0.298994 10.4212L4.46624 4.14149C4.47871 4.14977 4.48967 4.16084 4.49902 4.17788C4.50417 4.18725 4.50892 4.1987 4.51228 4.21164C4.51578 4.2251 4.51668 4.23604 4.51668 4.24196H-3.01995ZM2.49699 3.51477C2.51285 3.51525 2.5295 3.51949 2.54569 3.52846L-1.10688 10.1208C-0.0714354 10.6945 1.08599 11.012 2.26824 11.0479L2.49699 3.51477ZM-3.04652 6.69061C-3.04986 6.78419 -3.04946 6.86635 -3.04946 6.8713H4.48717C4.48717 6.85992 4.4872 6.86906 4.48709 6.88097C4.48697 6.8955 4.4866 6.92314 4.48533 6.9587L-3.04652 6.69061ZM-3.04946 6.8713C-3.04946 10.4855 -0.466088 13.4704 2.9293 14.1464L4.40089 6.7548C4.42841 6.76027 4.44646 6.77385 4.45702 6.78652C4.46341 6.7942 4.4713 6.80628 4.47772 6.82367C4.48478 6.84277 4.48717 6.86069 4.48717 6.8713H-3.04946ZM2.68018 6.81325C2.68651 6.81154 2.69278 6.81074 2.69891 6.81074L2.69455 14.3474C3.35489 14.3477 4.01248 14.2605 4.65 14.0879L2.68018 6.81325ZM2.69673 6.81074C2.70167 6.81074 2.706 6.81099 2.70931 6.81131C2.71258 6.81163 2.71392 6.81192 2.71301 6.81174L1.30007 14.2147C1.74661 14.3 2.2134 14.3474 2.69673 14.3474V6.81074ZM-1.58013 11.6691C-0.62828 14.6227 2.11926 16.7573 5.36799 16.817L5.50632 9.28161C5.50914 9.28166 5.51856 9.28258 5.53047 9.28674C5.54124 9.2905 5.54979 9.29538 5.55623 9.30021C5.5662 9.3077 5.58243 9.32392 5.59321 9.35739L-1.58013 11.6691ZM3.12083 10.0769C2.50441 10.5573 1.73091 10.8439 0.87599 10.8439V18.3806C3.46282 18.3806 5.85602 17.5003 7.75348 16.0216L3.12083 10.0769ZM0.872803 10.8439C0.727132 10.8441 0.581598 10.8356 0.436966 10.8188L-0.436966 18.3046C-0.00010999 18.3556 0.439363 18.3809 0.879178 18.3806L0.872803 10.8439ZM-2.02521 17.7395C0.183207 19.1469 2.81205 19.9701 5.62943 19.9701V12.4335C4.29832 12.4335 3.06739 12.048 2.02521 11.3838L-2.02521 17.7395Z" fill="#1DA1F2" mask="url(#path-1-inside-1_56_5261)"/>
</svg>
