<svg width="117" height="138" viewBox="0 0 117 138" fill="none" xmlns="http://www.w3.org/2000/svg">
<path fill-rule="evenodd" clip-rule="evenodd" d="M36.5625 30.1875C36.5625 25.6125 38.1033 21.2249 40.8461 17.9899C43.5888 14.7549 47.3087 12.9375 51.1875 12.9375H65.8125C69.6913 12.9375 73.4112 14.7549 76.1539 17.9899C78.8967 21.2249 80.4375 25.6125 80.4375 30.1875V31.3663C84.9859 31.855 89.4904 32.499 93.9608 33.2868C101.049 34.5403 106.031 41.814 106.031 50.0595V67.4993C106.031 74.4625 102.453 81.0233 96.5932 83.3233C84.3074 88.1333 71.4449 90.5777 58.5 90.5625C45.1912 90.5625 32.3846 88.021 20.4067 83.3233C14.547 81.0233 10.9688 74.4625 10.9688 67.4993V50.0595C10.9688 41.814 15.951 34.5345 23.0392 33.2868C27.5305 32.4945 32.0401 31.8541 36.5625 31.3663V30.1875ZM73.125 30.1875V30.705C63.384 30.0072 53.616 30.0072 43.875 30.705V30.1875C43.875 27.9 44.6454 25.7062 46.0168 24.0887C47.3881 22.4712 49.2481 21.5625 51.1875 21.5625H65.8125C67.7519 21.5625 69.6119 22.4712 70.9832 24.0887C72.3546 25.7062 73.125 27.9 73.125 30.1875ZM58.5 77.625C59.4697 77.625 60.3997 77.1707 61.0854 76.3619C61.771 75.5532 62.1562 74.4563 62.1562 73.3125C62.1562 72.1688 61.771 71.0719 61.0854 70.2631C60.3997 69.4544 59.4697 69 58.5 69C57.5303 69 56.6003 69.4544 55.9146 70.2631C55.229 71.0719 54.8438 72.1688 54.8438 73.3125C54.8438 74.4563 55.229 75.5532 55.9146 76.3619C56.6003 77.1707 57.5303 77.625 58.5 77.625Z" fill="#4297FA"/>
<path d="M14.625 105.8V89.7231C15.7356 90.4399 16.899 91.0365 18.1009 91.5056C31.1302 96.608 44.7713 99.2019 58.5 99.1876C72.5985 99.1876 86.19 96.4966 98.8991 91.5114C100.128 91.0284 101.288 90.4246 102.375 89.7231V105.8C102.375 114.149 97.2709 121.486 90.0754 122.607C79.7404 124.229 69.2006 125.063 58.5 125.063C47.9405 125.065 37.3924 124.245 26.9246 122.607C19.7291 121.486 14.625 114.149 14.625 105.8Z" fill="#4297FA"/>
<g clip-path="url(#clip0_35_194)">
<path d="M71.6149 103.22L78.0744 110.074L88.8402 94.0825M106.065 100.936C106.065 104.798 104.257 108.216 101.492 110.281C101.79 112.086 101.673 113.941 101.152 115.689C100.631 117.436 99.7204 119.025 98.4978 120.32C97.2772 121.617 95.7799 122.583 94.1328 123.136C92.4856 123.689 90.7372 123.813 89.0354 123.497C88.0427 124.997 86.7239 126.221 85.1907 127.066C83.6575 127.91 81.9551 128.351 80.2276 128.349C76.5873 128.349 73.3662 126.43 71.4197 123.497C69.7179 123.813 67.9695 123.689 66.3224 123.136C64.6753 122.583 63.1781 121.617 61.9573 120.32C60.7347 119.025 59.8242 117.436 59.303 115.689C58.7817 113.941 58.6651 112.086 58.963 110.281C57.5491 109.227 56.3953 107.828 55.5993 106.202C54.8032 104.575 54.3883 102.769 54.3897 100.936C54.3897 97.0736 56.1983 93.656 58.963 91.5909C58.6651 89.7854 58.7817 87.9303 59.303 86.1827C59.8242 84.4351 60.7347 82.8466 61.9573 81.5515C63.1781 80.2546 64.6753 79.2887 66.3224 78.7357C67.9695 78.1827 69.7179 78.0589 71.4197 78.3746C72.4126 76.8748 73.7314 75.6507 75.2645 74.8061C76.7977 73.9615 78.5001 73.5212 80.2276 73.5225C83.8678 73.5225 87.0889 75.4414 89.0354 78.3746C90.7372 78.0589 92.4856 78.1827 94.1327 78.7357C95.7798 79.2887 97.2771 80.2546 98.4978 81.5515C99.7202 82.8467 100.631 84.4353 101.152 86.1828C101.673 87.9303 101.79 89.7854 101.492 91.5909C102.906 92.6441 104.06 94.0433 104.856 95.67C105.652 97.2967 106.067 99.1029 106.065 100.936Z" stroke="#0B0789" stroke-width="1.5" stroke-linecap="round" stroke-linejoin="round"/>
</g>
<defs>
<clipPath id="clip0_35_194">
<rect width="59.0467" height="63.0517" fill="white" transform="translate(47.0187 69)"/>
</clipPath>
</defs>
</svg>
