<svg width="16" height="16" viewBox="0 0 16 16" fill="none" xmlns="http://www.w3.org/2000/svg">
<path d="M8.35464 13.6322L5.07201 13.5709C4.00914 13.5496 2.94366 13.5922 1.90168 13.371C0.316517 13.0406 0.204224 11.4204 0.0867073 10.0613C-0.0752042 8.15064 -0.0125288 6.20532 0.293014 4.31063C0.465371 3.24737 1.14435 2.61314 2.19417 2.54385C5.73794 2.29336 9.30522 2.32267 12.8412 2.43993C13.2146 2.45058 13.5906 2.50921 13.9589 2.57583C15.7765 2.90094 15.8208 4.737 15.9384 6.2826C16.0559 7.84419 16.0063 9.41377 15.7817 10.9647C15.6015 12.2491 15.2568 13.3257 13.8022 13.4297C11.9794 13.5656 10.1983 13.6748 8.37031 13.6402C8.37031 13.6322 8.35986 13.6322 8.35464 13.6322ZM6.42476 10.3811C7.79839 9.57632 9.14592 8.78487 10.5117 7.98542C9.13547 7.18065 7.79056 6.38919 6.42476 5.58975V10.3811Z" fill="#0A65CC"/>
</svg>
